<svg xmlns="http://www.w3.org/2000/svg" width="512" height="512" viewBox="0 0 512 512"><defs>
      <linearGradient id="bg" x1="0" y1="0" x2="1" y2="1">
        <stop offset="0" stop-color="#101736"/>
        <stop offset="1" stop-color="#060A1C"/>
      </linearGradient>
      <linearGradient id="trail" x1="0.1" y1="0.95" x2="0.9" y2="0.05">
        <stop offset="0" stop-color="#22D3EE"/>
        <stop offset="0.48" stop-color="#4F7DFF"/>
        <stop offset="1" stop-color="#A855F7"/>
      </linearGradient>
      <linearGradient id="trailHi" x1="0.1" y1="0.95" x2="0.9" y2="0.05">
        <stop offset="0" stop-color="#B9FBFF"/>
        <stop offset="0.5" stop-color="#BAD4FF"/>
        <stop offset="1" stop-color="#EFCBFF"/>
      </linearGradient>
      <radialGradient id="nodeGlow">
        <stop offset="0" stop-color="#FFFFFF" stop-opacity="0.95"/>
        <stop offset="0.25" stop-color="#9BB8FF" stop-opacity="0.85"/>
        <stop offset="0.6" stop-color="#7C5CFF" stop-opacity="0.35"/>
        <stop offset="1" stop-color="#7C5CFF" stop-opacity="0"/>
      </radialGradient>
      <radialGradient id="sparkGlow">
        <stop offset="0" stop-color="#E9D5FF" stop-opacity="0.95"/>
        <stop offset="0.4" stop-color="#A855F7" stop-opacity="0.5"/>
        <stop offset="1" stop-color="#A855F7" stop-opacity="0"/>
      </radialGradient>
      <filter id="glowL" x="-40%" y="-40%" width="180%" height="180%">
        <feGaussianBlur stdDeviation="16"/>
      </filter>
      <filter id="glowM" x="-30%" y="-30%" width="160%" height="160%">
        <feGaussianBlur stdDeviation="6"/>
      </filter>
      <filter id="glowS" x="-60%" y="-60%" width="220%" height="220%">
        <feGaussianBlur stdDeviation="4"/>
      </filter>
    </defs><rect width="512" height="512" rx="118" fill="url(#bg)"/><path d="M316 60 A212 212 0 0 1 456 200" fill="none" stroke="url(#trailHi)" stroke-width="5" stroke-linecap="round" opacity="0.22"/><circle cx="456" cy="200" r="7" fill="url(#trailHi)" opacity="0.5"/><path d="M138 412 L138 112 L374 402 L374 104" fill="none" stroke="url(#trail)" stroke-width="56" stroke-linecap="round" stroke-linejoin="round" filter="url(#glowL)" opacity="0.5"/><path d="M138 412 L138 112 L374 402 L374 104" fill="none" stroke="url(#trail)" stroke-width="50" stroke-linecap="round" stroke-linejoin="round" filter="url(#glowM)" opacity="0.95"/><path d="M138 412 L138 112 L374 402 L374 104" fill="none" stroke="#F2FAFF" stroke-width="12" opacity="0.5" stroke-linecap="round" stroke-linejoin="round"/><g>
      <circle cx="138" cy="112" r="32" fill="url(#nodeGlow)"/>
      <circle cx="138" cy="112" r="11" fill="#FFFFFF"/>
    </g><g>
      <circle cx="374" cy="402" r="32" fill="url(#nodeGlow)"/>
      <circle cx="374" cy="402" r="11" fill="#FFFFFF"/>
    </g><g>
      <circle cx="374" cy="104" r="32" fill="url(#nodeGlow)"/>
      <circle cx="374" cy="104" r="11" fill="#FFFFFF"/>
    </g><path d="M388 92 L428 68" stroke="url(#trailHi)" stroke-width="6" stroke-linecap="round" opacity="0.5"/><circle cx="443" cy="59" r="26" fill="url(#sparkGlow)" filter="url(#glowS)" opacity="0.8"/><circle cx="443" cy="59" r="11" fill="#FDF7FF"/></svg>